<?xml version="1.0" encoding="UTF-8"?>
<!-- Created with Inkscape (http://www.inkscape.org/) -->
<svg width="32.673mm" height="23.385mm" version="1.1" viewBox="0 0 32.673 23.385" xmlns="http://www.w3.org/2000/svg">
 <g transform="translate(-415.74 -257.13)">
  <path d="m432.08 257.13c-0.81516 0-1.7293 0.62155-1.7293 1.7292s1.1545 2.8817 1.7293 2.8817c0.57474 0 1.7293-1.7886 1.7293-2.8817 0-1.0931-0.9141-1.7292-1.7293-1.7292z" fill="#3cf691"/>
  <path d="m426.88 269.42c-2.221-0.27323-4.1255-0.2573-5.157-1.2888-1.2225-1.2225-0.91176-2.9566 0-3.8684 0.48433-0.48433 1.1961-0.80358 1.9428-0.81074 0.65878 0 1.3445 0.22999 1.9252 0.81074 1.2389 1.239 1.289 3.2308 1.2889 5.1571zm-1.1577 10.448 1.1577-10.448c1.9385 0.16785 3.4765 0.25829 5.196 0.25829s3.2574-0.0904 5.196-0.25829l1.1577 10.448m-1.1577-10.448c2.221-0.27323 4.1255-0.2573 5.157-1.2888 1.2225-1.2225 0.91176-2.9566 0-3.8684-0.48433-0.48433-1.1961-0.80358-1.9428-0.81074-0.65878 0-1.3445 0.22999-1.9252 0.81074-1.2388 1.239-1.2889 3.2308-1.2889 5.1571z" fill="none" stroke="#fff" stroke-linecap="round" stroke-linejoin="round" stroke-width="1.3"/>
  <path d="m448.18 278.21c0.40758-0.70595 0.32636-1.8084-0.63294-2.3622-0.9593-0.55385-3.0729-0.44103-3.3603 0.0567-0.28737 0.49774 0.68433 2.3919 1.631 2.9385 0.94667 0.54656 1.9546 0.073 2.3622-0.63299z" fill="#3cf691"/>
  <path d="m415.97 278.21c-0.40758-0.70595-0.32636-1.8084 0.63294-2.3622 0.9593-0.55385 3.0729-0.44103 3.3603 0.0567 0.28737 0.49774-0.68433 2.3919-1.631 2.9385-0.94667 0.54656-1.9546 0.073-2.3622-0.63299z" fill="#3cf691"/>
 </g>
</svg>
